<?xml version="1.0" standalone="no"?>
<!DOCTYPE svg PUBLIC "-//W3C//DTD SVG 20010904//EN"
 "http://www.w3.org/TR/2001/REC-SVG-20010904/DTD/svg10.dtd">
<svg version="1.0" xmlns="http://www.w3.org/2000/svg"
 width="530.000000pt" height="530.000000pt" viewBox="0 0 530.000000 530.000000"
 preserveAspectRatio="xMidYMid meet">
<metadata>
Created by potrace 1.11, written by Peter Selinger 2001-2013
</metadata>
<g transform="translate(0.000000,530.000000) scale(0.100000,-0.100000)"
fill="#000000" stroke="none">
<path d="M2995 5086 c-144 -46 -255 -164 -284 -303 -9 -44 -11 -540 -9 -2073
l3 -2015 32 -67 c42 -90 110 -160 192 -201 112 -55 261 -50 526 18 739 189
1340 809 1563 1610 129 462 123 980 -18 1440 -161 530 -501 990 -950 1285
-114 75 -321 177 -445 218 -254 86 -503 122 -610 88z m326 -530 c545 -142 988
-583 1184 -1178 240 -732 47 -1548 -489 -2055 -229 -216 -478 -349 -788 -417
l-28 -6 0 1840 c0 1564 2 1840 14 1840 8 0 56 -11 107 -24z"/>
<path d="M2020 5045 c-570 -131 -1058 -452 -1396 -920 -179 -246 -297 -503
-379 -820 -50 -195 -45 -263 28 -342 70 -76 26 -73 1019 -73 640 0 892 3 926
12 59 15 132 85 150 144 16 56 17 1809 1 1869 -15 53 -91 129 -144 144 -55 15
-84 13 -205 -14z"/>
<path d="M385 2581 c-76 -19 -143 -78 -165 -147 -38 -113 80 -518 232 -804
329 -615 891 -1043 1569 -1194 131 -29 148 -30 204 -15 53 15 129 91 144 144
16 57 15 1813 0 1866 -16 50 -61 105 -112 132 l-42 22 -900 2 c-495 0 -913 -2
-930 -6z"/>
</g>
</svg>
